<svg id="Calque_1" data-name="Calque 1" xmlns="http://www.w3.org/2000/svg" viewBox="0 0 815.62 300"><defs><style>.cls-1{fill:#FFFFFF;}</style></defs><path class="cls-1" d="M939.39,330.59a29,29,0,0,0-.22-3.9,5.41,5.41,0,0,0-1-2.65,4.41,4.41,0,0,0-2.21-1.48,13,13,0,0,0-3.81-.46c-1.07,0-2.38.06-3.93.17s-3.17.3-4.85.56l-.49-4q7.14-1.85,12.26-2.71a51.36,51.36,0,0,1,8.46-.88,11.52,11.52,0,0,1,4.93.85,5.29,5.29,0,0,1,2.52,2.53,10.91,10.91,0,0,1,1,4.1c.09,1.61.14,3.46.14,5.53,0,.13,0,1.19,0,3.2s-.08,4.67-.17,8-.17,7.17-.29,11.55-.24,9-.38,13.93-.32,9.94-.51,15.11-.42,10.21-.66,15.09-.5,9.51-.78,13.88-.57,8.18-.89,11.45q4.65-.68,8.78-1c2.75-.21,5.3-.32,7.67-.32q5,0,9.34.27c2.89.18,5.75.26,8.56.26a14.9,14.9,0,0,0,5.27-.87,8.85,8.85,0,0,0,4-3.06,18.36,18.36,0,0,0,2.74-5.92,54,54,0,0,0,1.68-9.51l4.22.34a84.09,84.09,0,0,1-1,14.05,27.38,27.38,0,0,1-2.83,8.69,10.43,10.43,0,0,1-4.49,4.41,14.05,14.05,0,0,1-6,1.24,36.24,36.24,0,0,1-5.68-.49q-3.1-.48-6.77-1.09c-2.44-.4-5.09-.77-7.93-1.09a82.7,82.7,0,0,0-9.22-.49,90.33,90.33,0,0,0-9.59.56,83.81,83.81,0,0,0-10.6,1.87l-.87-.1q.83-6.65,1.43-14.29T938,398q.4-8.25.7-16.88t.44-17.28q.15-8.62.19-17T939.39,330.59Z" transform="translate(-898.13 -312.64)"/><path class="cls-1" d="M1019.65,330.35a16.67,16.67,0,0,0-.32-3.49,4.91,4.91,0,0,0-1.16-2.36,5.1,5.1,0,0,0-2.35-1.31,15.38,15.38,0,0,0-3.89-.41c-1,0-2.2.06-3.49.17s-2.77.27-4.42.46l-.53-4.51q4.75-.72,8.83-1.29t7.64-1q3.57-.4,6.68-.6c2.07-.13,4-.2,5.87-.2q7.66,0,14.53-.12t12.18-.24q5.31-.12,8.73-.24t4.2-.12a5,5,0,0,1,3.42,1,4.08,4.08,0,0,1,1.19,3.23c0,.58-.06,1.71-.17,3.39s-.26,3.62-.44,5.8-.38,4.49-.6,6.92-.47,4.69-.73,6.79l-4.66-.15c.07-1.23.11-2.37.15-3.44s0-2.07,0-3a36.9,36.9,0,0,0-.48-6.62,8.22,8.22,0,0,0-1.77-4,6.62,6.62,0,0,0-3.52-2,26.92,26.92,0,0,0-5.68-.58l-8.44-.07-7,0h-2.57l-3.76,0c-1.28,0-2.82.06-4.63.12q-.1,4-.22,9t-.27,10.65q-.15,5.69-.31,12t-.37,13q6.27.29,11.11.41t9,.12q5,0,8.86-.31a63.66,63.66,0,0,0,7.3-1,11.4,11.4,0,0,1,.78,3.84,3.45,3.45,0,0,1-.88,2.38,6.26,6.26,0,0,1-2.47,1.57,16.27,16.27,0,0,1-3.88.88,46.25,46.25,0,0,1-5.1.26c-3.33,0-7.11-.18-11.33-.56s-8.74-.83-13.56-1.38c-.07,1.88-.15,4.13-.24,6.77s-.22,5.44-.34,8.42-.29,6-.46,9.15-.36,6.11-.54,9-.37,5.49-.58,7.86-.43,4.33-.66,5.85q4.71-.68,9.17-1t8.11-.32q5.09,0,9.53.27c3,.18,5.9.26,8.81.26a14.84,14.84,0,0,0,5.12-.8,8.68,8.68,0,0,0,3.86-2.86,17,17,0,0,0,2.74-5.56,49.4,49.4,0,0,0,1.72-8.88l4.37.25a81,81,0,0,1-1.17,13.44,26,26,0,0,1-2.84,8.34,10.07,10.07,0,0,1-4.44,4.25,14.19,14.19,0,0,1-5.92,1.19,37.43,37.43,0,0,1-5.77-.49q-3.15-.48-6.89-1.09c-2.49-.4-5.18-.77-8.08-1.09a85.07,85.07,0,0,0-9.34-.49,94.39,94.39,0,0,0-9.73.56,88.08,88.08,0,0,0-10.89,1.87l-.87-.1q.72-4.85,1.28-11.74t1-15.07q.43-8.17.72-17.24t.49-18.32q.2-9.24.27-18.3T1019.65,330.35Z" transform="translate(-898.13 -312.64)"/><path class="cls-1" d="M1095.05,398.24c-.09.77-.16,1.52-.19,2.23s0,1.42,0,2.13a26.21,26.21,0,0,0,1.48,9.39,15.8,15.8,0,0,0,4.22,6.29,16.64,16.64,0,0,0,6.6,3.51,31.71,31.71,0,0,0,8.66,1.09,30.72,30.72,0,0,0,9.12-1.33,22.37,22.37,0,0,0,7.6-4,19.48,19.48,0,0,0,5.21-6.63,20.39,20.39,0,0,0,2-9.14,19.24,19.24,0,0,0-.9-6,19.94,19.94,0,0,0-2.48-5.05,23.69,23.69,0,0,0-3.73-4.25,44,44,0,0,0-4.71-3.66q-2.55-1.72-5.36-3.3l-5.73-3.18q-3.06-1.65-6.09-3.39c-2-1.17-4-2.41-5.8-3.74a47.68,47.68,0,0,1-5.14-4.29,26.57,26.57,0,0,1-4.1-5.12,26,26,0,0,1-2.72-6.21,26.91,26.91,0,0,1-1-7.53,33.87,33.87,0,0,1,1.31-9.58,31.85,31.85,0,0,1,3.66-8.15,31.31,31.31,0,0,1,5.63-6.62,34.66,34.66,0,0,1,7.18-4.93,36.68,36.68,0,0,1,8.35-3.06,39.93,39.93,0,0,1,9.1-1,41.42,41.42,0,0,1,4.56.27,45.8,45.8,0,0,1,4.85.8,41.7,41.7,0,0,1,4.63,1.28,22.6,22.6,0,0,1,3.91,1.73,10.51,10.51,0,0,1,2.72,2.13,3.71,3.71,0,0,1,1,2.48c0,.94,0,2.11,0,3.51s-.08,3-.12,4.81-.13,3.75-.22,5.87-.21,4.36-.34,6.72l-4.9-.24c.09-1.17.14-2.28.14-3.35a23.06,23.06,0,0,0-1.43-8.47,16.47,16.47,0,0,0-4-6.11,16.88,16.88,0,0,0-6.26-3.69,25.39,25.39,0,0,0-8.12-1.24,23.15,23.15,0,0,0-8.32,1.48,20.12,20.12,0,0,0-6.68,4.13,19.18,19.18,0,0,0-4.41,6.28,19.66,19.66,0,0,0-1.6,8,20.94,20.94,0,0,0,.92,6.43,20.66,20.66,0,0,0,2.55,5.31,23.37,23.37,0,0,0,3.85,4.42,46.68,46.68,0,0,0,4.86,3.76c1.74,1.18,3.59,2.3,5.53,3.37s3.9,2.13,5.87,3.2,4.07,2.17,6.09,3.3,3.95,2.34,5.8,3.62a40.82,40.82,0,0,1,5.12,4.17,26.42,26.42,0,0,1,4.07,5,24.37,24.37,0,0,1,2.72,6,25.41,25.41,0,0,1,1,7.32,35.11,35.11,0,0,1-1.82,11.8,30.29,30.29,0,0,1-4.87,9,30.93,30.93,0,0,1-7,6.43,41.33,41.33,0,0,1-8.23,4.22,45.11,45.11,0,0,1-8.54,2.3,48.82,48.82,0,0,1-7.91.71,58.38,58.38,0,0,1-9-.66,44.53,44.53,0,0,1-7.4-1.72,17.49,17.49,0,0,1-5-2.45,3.76,3.76,0,0,1-1.82-2.84c0-2.17.07-5.27.22-9.32s.38-8.84.7-14.41Z" transform="translate(-898.13 -312.64)"/><path class="cls-1" d="M1251.05,312.64a55.71,55.71,0,0,1,11.77,1.17,50.07,50.07,0,0,1,9.34,2.86,23.43,23.43,0,0,1,6.16,3.64c1.49,1.29,2.24,2.47,2.24,3.54,0,2.23-.09,5.13-.25,8.69s-.37,7.86-.63,12.9l-4.22-.14c0-.46.06-.88.07-1.29s0-.83,0-1.28a31.32,31.32,0,0,0-.75-6.39,17.51,17.51,0,0,0-2.55-5.79,23.17,23.17,0,0,0-4.64-4.9,28,28,0,0,0-5.89-3.6,32.37,32.37,0,0,0-6.84-2.2,36.73,36.73,0,0,0-7.43-.76,33.14,33.14,0,0,0-11.81,2,31.76,31.76,0,0,0-9.49,5.58,37,37,0,0,0-7.25,8.44,51.89,51.89,0,0,0-5.1,10.6,69.08,69.08,0,0,0-3,12,82.13,82.13,0,0,0-1,12.76,78.08,78.08,0,0,0,1.26,14.36,63.28,63.28,0,0,0,3.59,12.42,47.9,47.9,0,0,0,5.63,10.19,37.18,37.18,0,0,0,7.4,7.65,31.28,31.28,0,0,0,8.88,4.77,30.64,30.64,0,0,0,10.07,1.65,37.25,37.25,0,0,0,7.59-.8,40.9,40.9,0,0,0,7.94-2.52,54.33,54.33,0,0,0,8.12-4.37,63.07,63.07,0,0,0,8.18-6.33c.26.13.56.29.9.49a6.27,6.27,0,0,1,.94.65,4.78,4.78,0,0,1,.76.8,1.48,1.48,0,0,1,.31.88,1.61,1.61,0,0,1-.39.82,64.13,64.13,0,0,1-9.61,8.78,53.08,53.08,0,0,1-9.75,5.73,45.16,45.16,0,0,1-9.87,3.13,53.17,53.17,0,0,1-9.93.95,42,42,0,0,1-23.53-7,44.52,44.52,0,0,1-9.22-8.23,50.11,50.11,0,0,1-7-10.84,59.29,59.29,0,0,1-4.49-13.08,68.32,68.32,0,0,1-1.58-14.92,77.39,77.39,0,0,1,1.53-15.21,72.5,72.5,0,0,1,4.56-14.63,63.1,63.1,0,0,1,7.62-13.05,51.49,51.49,0,0,1,10.7-10.56,49.48,49.48,0,0,1,13.78-7A53.23,53.23,0,0,1,1251.05,312.64Z" transform="translate(-898.13 -312.64)"/><path class="cls-1" d="M1308.26,319.87q.83,1.61,2,4.3t2.67,6.11q1.46,3.42,3.08,7.42c1.08,2.67,2.17,5.41,3.28,8.2s2.18,5.62,3.25,8.45,2.07,5.55,3,8.17q1.28,3.6,2.16,6.46t1.63,5.77h.29q2.28-5.38,4.66-10.87t4.71-10.8q2.33-5.31,4.56-10.26t4.27-9.29q2-4.33,3.78-7.91c1.17-2.38,2.2-4.41,3.11-6.09a10.7,10.7,0,0,1,1.79-2.57,7.18,7.18,0,0,1,2-1.41,6.9,6.9,0,0,1,2.21-.6,24,24,0,0,1,2.47-.13,10.5,10.5,0,0,1,1.65.15,19.07,19.07,0,0,1,1.87.41,14.93,14.93,0,0,1,1.84.66,8.3,8.3,0,0,1,1.63.92q-7.14,9.56-12.62,18.12T1348,350.85q-4,7.22-6.82,12.89t-4.46,9.46c-.78,1.71-1.45,3.35-2,4.92a36.94,36.94,0,0,0-1.39,5.12q-.55,2.77-.92,6.19t-.56,8.08q-.14,3.06-.26,6.28c-.09,2.15-.17,4.41-.27,6.77s-.19,4.88-.27,7.55-.17,5.55-.26,8.66l-11.5,1.45-.88-.09q.35-6.47.61-12.69c.18-4.16.32-8,.44-11.45s.19-6.51.24-9.1.07-4.48.07-5.68a45.57,45.57,0,0,0-.46-6.36,50.48,50.48,0,0,0-1.53-7q-1.17-4-2.76-8.54t-3.38-9.1q-1.77-4.59-3.66-9c-1.26-3-2.48-5.74-3.64-8.34s-2.25-5-3.25-7.06-1.84-3.84-2.52-5.19a16.28,16.28,0,0,0-1.85-3,8.11,8.11,0,0,0-2.18-1.94,8.67,8.67,0,0,0-2.69-1.05,16.42,16.42,0,0,0-3.38-.31,31.45,31.45,0,0,0-3.66.22c-1.28.14-2.64.31-4.1.5l-.53-4.31q7.32-1.84,12.15-2.84a41.15,41.15,0,0,1,7.89-1,8.82,8.82,0,0,1,4.87,1.19A9.32,9.32,0,0,1,1308.26,319.87Z" transform="translate(-898.13 -312.64)"/><path class="cls-1" d="M1420.45,312.64a55.61,55.61,0,0,1,11.76,1.17,50.07,50.07,0,0,1,9.34,2.86,23.67,23.67,0,0,1,6.17,3.64c1.48,1.29,2.23,2.47,2.23,3.54q0,3.34-.24,8.69c-.17,3.55-.38,7.86-.63,12.9l-4.23-.14c0-.46.06-.88.08-1.29s0-.83,0-1.28a30,30,0,0,0-.75-6.39,17.51,17.51,0,0,0-2.55-5.79,23.12,23.12,0,0,0-4.63-4.9,28.05,28.05,0,0,0-5.9-3.6,32,32,0,0,0-6.84-2.2,36.7,36.7,0,0,0-7.42-.76,33.16,33.16,0,0,0-11.82,2,31.88,31.88,0,0,0-9.49,5.58,37,37,0,0,0-7.25,8.44,52.39,52.39,0,0,0-5.09,10.6,67.33,67.33,0,0,0-3,12,80.93,80.93,0,0,0-1,12.76,78.08,78.08,0,0,0,1.26,14.36,63.28,63.28,0,0,0,3.59,12.42,48.34,48.34,0,0,0,5.63,10.19,37.18,37.18,0,0,0,7.4,7.65,31.55,31.55,0,0,0,8.88,4.77,30.69,30.69,0,0,0,10.07,1.65,37.25,37.25,0,0,0,7.59-.8,40.9,40.9,0,0,0,7.94-2.52,54.91,54.91,0,0,0,8.13-4.37,63.69,63.69,0,0,0,8.17-6.33c.26.13.56.29.9.49a6.93,6.93,0,0,1,1,.65,4.35,4.35,0,0,1,.75.8,1.48,1.48,0,0,1,.31.88,1.67,1.67,0,0,1-.38.82,65.12,65.12,0,0,1-9.61,8.78,53.48,53.48,0,0,1-9.76,5.73,44.83,44.83,0,0,1-9.87,3.13,53.06,53.06,0,0,1-9.92.95,42,42,0,0,1-23.54-7,44.78,44.78,0,0,1-9.22-8.23,50.11,50.11,0,0,1-7-10.84,59.81,59.81,0,0,1-4.49-13.08,68.32,68.32,0,0,1-1.58-14.92,77.39,77.39,0,0,1,1.53-15.21,72.5,72.5,0,0,1,4.56-14.63,63.1,63.1,0,0,1,7.62-13.05,51.74,51.74,0,0,1,10.7-10.56,49.62,49.62,0,0,1,13.78-7A53.25,53.25,0,0,1,1420.45,312.64Z" transform="translate(-898.13 -312.64)"/><path class="cls-1" d="M1473.34,330.59a30.73,30.73,0,0,0-.22-3.9,5.52,5.52,0,0,0-1-2.65,4.34,4.34,0,0,0-2.2-1.48,13.09,13.09,0,0,0-3.81-.46c-1.07,0-2.38.06-3.93.17s-3.17.3-4.86.56l-.48-4q7.13-1.85,12.25-2.71a51.47,51.47,0,0,1,8.47-.88,11.5,11.5,0,0,1,4.92.85,5.36,5.36,0,0,1,2.53,2.53,10.91,10.91,0,0,1,.94,4.1c.1,1.61.15,3.46.15,5.53,0,.13,0,1.19,0,3.2s-.09,4.67-.17,8-.18,7.17-.29,11.55-.24,9-.39,13.93-.31,9.94-.51,15.11-.41,10.21-.65,15.09-.51,9.51-.78,13.88-.58,8.18-.9,11.45c3.11-.45,6-.78,8.78-1s5.31-.32,7.67-.32c3.33,0,6.45.09,9.34.27s5.75.26,8.57.26a14.84,14.84,0,0,0,5.26-.87,8.82,8.82,0,0,0,4-3.06,18.57,18.57,0,0,0,2.74-5.92,55,55,0,0,0,1.67-9.51l4.22.34a84.23,84.23,0,0,1-1,14.05,27.11,27.11,0,0,1-2.84,8.69,10.37,10.37,0,0,1-4.49,4.41,14,14,0,0,1-6,1.24,36.34,36.34,0,0,1-5.68-.49c-2.07-.32-4.32-.68-6.77-1.09s-5.08-.77-7.93-1.09a82.7,82.7,0,0,0-9.22-.49,90.15,90.15,0,0,0-9.58.56,83.5,83.5,0,0,0-10.6,1.87l-.88-.1q.82-6.65,1.43-14.29t1-15.89q.42-8.25.71-16.88t.43-17.28q.15-8.62.2-17T1473.34,330.59Z" transform="translate(-898.13 -312.64)"/><path class="cls-1" d="M1553.59,330.35a16.73,16.73,0,0,0-.31-3.49,4.83,4.83,0,0,0-1.17-2.36,5,5,0,0,0-2.35-1.31,15.29,15.29,0,0,0-3.88-.41c-1,0-2.2.06-3.5.17s-2.76.27-4.41.46l-.53-4.51q4.75-.72,8.83-1.29t7.64-1q3.57-.4,6.67-.6t5.87-.2q7.66,0,14.53-.12t12.18-.24q5.33-.12,8.74-.24c2.28-.08,3.68-.12,4.19-.12a5,5,0,0,1,3.43,1,4.07,4.07,0,0,1,1.18,3.23c0,.58,0,1.71-.17,3.39s-.25,3.62-.43,5.8-.38,4.49-.61,6.92-.47,4.69-.73,6.79l-4.65-.15c.06-1.23.11-2.37.14-3.44s0-2.07,0-3a35.87,35.87,0,0,0-.49-6.62,8.22,8.22,0,0,0-1.77-4,6.59,6.59,0,0,0-3.51-2,27,27,0,0,0-5.68-.58l-8.44-.07-7,0h-2.57l-3.76,0c-1.28,0-2.83.06-4.64.12-.06,2.69-.14,5.69-.22,9s-.17,6.87-.26,10.65-.21,7.78-.32,12-.23,8.54-.36,13q6.26.29,11.11.41c3.23.08,6.23.12,9,.12q5,0,8.85-.31a63.36,63.36,0,0,0,7.3-1,11.4,11.4,0,0,1,.78,3.84,3.44,3.44,0,0,1-.87,2.38,6.31,6.31,0,0,1-2.48,1.57,16.27,16.27,0,0,1-3.88.88,46.07,46.07,0,0,1-5.09.26c-3.34,0-7.11-.18-11.33-.56s-8.75-.83-13.57-1.38c-.06,1.88-.14,4.13-.24,6.77s-.21,5.44-.34,8.42-.28,6-.46,9.15-.36,6.11-.53,9-.38,5.49-.59,7.86-.43,4.33-.65,5.85c3.14-.45,6.19-.78,9.17-1s5.68-.32,8.1-.32q5.1,0,9.54.27c3,.18,5.89.26,8.8.26a14.8,14.8,0,0,0,5.12-.8,8.62,8.62,0,0,0,3.86-2.86,16.76,16.76,0,0,0,2.74-5.56,50.2,50.2,0,0,0,1.73-8.88l4.36.25a80,80,0,0,1-1.16,13.44,26.24,26.24,0,0,1-2.84,8.34,10.07,10.07,0,0,1-4.44,4.25,14.23,14.23,0,0,1-5.92,1.19,37.33,37.33,0,0,1-5.77-.49c-2.11-.32-4.4-.68-6.89-1.09s-5.19-.77-8.08-1.09a85.21,85.21,0,0,0-9.34-.49,94.23,94.23,0,0,0-9.73.56,87.92,87.92,0,0,0-10.9,1.87l-.87-.1c.49-3.23.91-7.15,1.29-11.74s.7-9.61,1-15.07.53-11.2.73-17.24.35-12.16.48-18.32.22-12.26.27-18.3S1553.59,335.75,1553.59,330.35Z" transform="translate(-898.13 -312.64)"/><path class="cls-1" d="M1712.29,422.91a36,36,0,0,0-4-8.88,38.76,38.76,0,0,0-6-7.35,61.9,61.9,0,0,0-7.53-6.13q-4.07-2.82-8.52-5.31t-9-4.85q-4.35-2.36-8.63-4.71t-8.13-5a65.8,65.8,0,0,1-7.13-5.53,33.83,33.83,0,0,1-5.67-6.49,30.62,30.62,0,0,1-3.75-7.81,31.08,31.08,0,0,1-1.35-9.45,28.9,28.9,0,0,1,2.35-11.77,28,28,0,0,1,6.49-9.23,29.73,29.73,0,0,1,9.81-6.07,33.83,33.83,0,0,1,12.23-2.17,37,37,0,0,1,12,1.82,24.75,24.75,0,0,1,9.2,5.42,24.33,24.33,0,0,1,5.92,9,34.1,34.1,0,0,1,2.1,12.44q0,2.36-.21,4.92l7.2.36c.19-3.47.36-6.77.5-9.88s.25-6,.32-8.63.13-5,.18-7.06.07-3.79.07-5.17a5.44,5.44,0,0,0-1.5-3.64,15.3,15.3,0,0,0-4-3.14,33.66,33.66,0,0,0-5.74-2.53,62.75,62.75,0,0,0-6.81-1.89,71.1,71.1,0,0,0-7.13-1.18,62.16,62.16,0,0,0-6.71-.39,58.48,58.48,0,0,0-13.38,1.53,53.45,53.45,0,0,0-12.26,4.5,50.58,50.58,0,0,0-10.56,7.24,45.58,45.58,0,0,0-8.27,9.73,47.47,47.47,0,0,0-5.39,12,49.78,49.78,0,0,0-1.92,14.09,39.48,39.48,0,0,0,1.46,11.06,37.44,37.44,0,0,0,4,9.13,38.17,38.17,0,0,0,6,7.52,66.17,66.17,0,0,0,7.56,6.31q4.06,2.92,8.52,5.5t9,5q4.28,2.36,8.41,4.67t7.88,4.85a63.33,63.33,0,0,1,6.92,5.39,34.32,34.32,0,0,1,5.49,6.24,28.87,28.87,0,0,1,3.64,7.41,28.43,28.43,0,0,1,1.32,8.88,30.18,30.18,0,0,1-2.85,13.45,28.66,28.66,0,0,1-7.67,9.74,32.92,32.92,0,0,1-11.16,5.88c-4.23,1.31-13,1.39-17.73,1.39q-.78,0-4.2.12t-8.73.24l-4.07.08-15,2.59a25.39,25.39,0,0,0,7.35,3.6c3.06,1,5.2.36,9.23.7l2.19,0h5.58c2.27,0,7.51.14,12.12.15,2.66,0,5.1,0,6.65-.15,4.68-.4,8.66-.4,12.55-1.64a49.49,49.49,0,0,0,12.09-6.21,45.2,45.2,0,0,0,10.3-9.45,44.37,44.37,0,0,0,7.17-13.16,51.66,51.66,0,0,0,2.68-17.33A37,37,0,0,0,1712.29,422.91Z" transform="translate(-898.13 -312.64)"/><path class="cls-1" d="M922.85,478.09c3.42-.64,6.95-1.27,10.57-1.86s7.28-1.13,11-1.58,7.38-.82,11.09-1.09,7.36-.42,11-.42a111.41,111.41,0,0,1,14.68.95,65.18,65.18,0,0,1,13.39,3.2,46.75,46.75,0,0,1,11.52,6,36.05,36.05,0,0,1,9,9.37,44.55,44.55,0,0,1,5.85,13.27,67.71,67.71,0,0,1,2.09,17.71,81.26,81.26,0,0,1-1.8,17.3,68.8,68.8,0,0,1-5.24,15.4,59.9,59.9,0,0,1-8.42,13,52.58,52.58,0,0,1-11.35,10,53.26,53.26,0,0,1-14.07,6.4A58.29,58.29,0,0,1,965.59,588a69.61,69.61,0,0,1-9.26-.63,85.27,85.27,0,0,1-9.81-1.94l-9.6,1.16-.88-.09c.23-2.07.47-4.82.73-8.23s.51-7.38.75-11.91.48-9.57.71-15.12.43-11.51.6-17.9.32-13.13.42-20.21.14-14.44.14-22.08a37.22,37.22,0,0,0-.19-4.07,6.25,6.25,0,0,0-1-2.92,4.8,4.8,0,0,0-2.37-1.74,12.77,12.77,0,0,0-4.3-.59,60.08,60.08,0,0,0-8.2.73Zm29.25,1.61q0,2.42-.14,7.23t-.24,11.18q-.15,6.38-.37,13.93t-.46,15.43c-.16,5.25-.34,10.49-.53,15.69s-.39,10.13-.58,14.75-.4,8.83-.61,12.6-.41,6.83-.61,9.19a59.49,59.49,0,0,0,8.86,1.68q4.05.4,8,.41a48.18,48.18,0,0,0,14.58-2,37.57,37.57,0,0,0,11.31-5.7,36.3,36.3,0,0,0,8.29-8.71,49.32,49.32,0,0,0,5.58-11.07,66,66,0,0,0,3.16-12.81,96.34,96.34,0,0,0,1-13.92A76.22,76.22,0,0,0,1007,508a39.27,39.27,0,0,0-7.67-15.28,35.29,35.29,0,0,0-13.85-10q-8.54-3.57-20.86-3.57-3.06,0-6.17.15T952.1,479.7Z" transform="translate(-898.13 -312.64)"/><path class="cls-1" d="M1127.47,475.23q-1,10.77-1.68,20.55t-1.19,19.07q-.48,9.28-.7,18.39t-.22,18.46q0,7.29.2,12.62a41.79,41.79,0,0,0,1.09,8.83,10.53,10.53,0,0,0,2.71,5.19,7.19,7.19,0,0,0,5.08,1.7,27.77,27.77,0,0,0,4.36-.39,28.63,28.63,0,0,0,5.78-1.7l1.26,3.84c-1.75.9-3.54,1.73-5.39,2.47s-3.65,1.39-5.41,1.94a46.06,46.06,0,0,1-5.07,1.29,23.39,23.39,0,0,1-4.37.46,10.86,10.86,0,0,1-5.92-1.46,9.82,9.82,0,0,1-3.56-4.07,19.9,19.9,0,0,1-1.75-6.26,63.61,63.61,0,0,1-.46-8q0-4.8.24-10.14c.16-3.56.37-7.24.63-11.06l-.48-.1q-1.56,4.71-3.74,9.63a80.93,80.93,0,0,1-5,9.54,69.22,69.22,0,0,1-6.23,8.66,46.32,46.32,0,0,1-7.47,7.11,34.39,34.39,0,0,1-8.74,4.8,30.6,30.6,0,0,1-19.82.2,21.84,21.84,0,0,1-7.18-4.3,22.64,22.64,0,0,1-5-6.53,38.82,38.82,0,0,1-3.06-8.27,61.71,61.71,0,0,1-1.55-9.48c-.29-3.34-.44-6.73-.44-10.19q0-5.58.39-11.77t1-12.4q.56-6.21,1.24-12t1.23-10.68q.55-4.84,1-8.34c.26-2.33.39-4,.39-5.05a13.26,13.26,0,0,0-.29-2.91,4.24,4.24,0,0,0-1.14-2.09,5.31,5.31,0,0,0-2.31-1.23,14,14,0,0,0-3.78-.42c-1.1,0-2.36.07-3.76.2s-3,.32-4.78.58l-.54-4.13q7.42-1.74,12.5-2.66a48.25,48.25,0,0,1,8.42-.93,13.43,13.43,0,0,1,4,.51,5.58,5.58,0,0,1,2.55,1.58,6,6,0,0,1,1.33,2.69,16.76,16.76,0,0,1,.39,3.86c0,.87-.13,2.48-.39,4.8s-.58,5.15-1,8.45-.81,7-1.28,11-.9,8.28-1.29,12.66-.71,8.81-1,13.27-.39,8.75-.39,12.86c0,2.56.08,5.14.22,7.76a59.21,59.21,0,0,0,.9,7.53,36.11,36.11,0,0,0,1.94,6.74,18.83,18.83,0,0,0,3.3,5.48,14.29,14.29,0,0,0,5,3.67,17.32,17.32,0,0,0,7.11,1.33,21.34,21.34,0,0,0,9.46-2.21,32,32,0,0,0,8.57-6.16,50,50,0,0,0,7.37-9.44,69.94,69.94,0,0,0,5.85-12,92.49,92.49,0,0,0,4-13.95,95.76,95.76,0,0,0,1.87-15.16c.1-2,.19-3.9.27-5.78s.16-3.79.24-5.75.17-4,.27-6.09.21-4.36.34-6.77.28-5,.46-7.79.38-5.83.6-9.17a3.38,3.38,0,0,1,.64-1.86,4.78,4.78,0,0,1,1.48-1.34,7.22,7.22,0,0,1,2-.8,9.61,9.61,0,0,1,2.28-.27,15.23,15.23,0,0,1,3.11.37A17.11,17.11,0,0,1,1127.47,475.23Z" transform="translate(-898.13 -312.64)"/><path class="cls-1" d="M1193.55,489.35a15.32,15.32,0,0,0-.34-3.49,5.19,5.19,0,0,0-1.18-2.38,5.1,5.1,0,0,0-2.36-1.36,14,14,0,0,0-3.83-.44,60,60,0,0,0-8.2.73l-.58-4.32c3-.55,6.3-1.11,9.87-1.69s7.25-1.12,11-1.61,7.55-.88,11.35-1.18,7.45-.47,10.94-.47a65.13,65.13,0,0,1,13,1.24,30,30,0,0,1,10.44,4.13,20.52,20.52,0,0,1,6.94,7.59,24.57,24.57,0,0,1,2.52,11.69,32.12,32.12,0,0,1-2.11,11.82,30.89,30.89,0,0,1-6,9.58,35.74,35.74,0,0,1-9.34,7.23,53,53,0,0,1-12.23,4.76q5.06,8.64,9.17,15.19t7.57,11.47q3.45,4.92,6.31,8.44c1.91,2.35,3.7,4.38,5.39,6.09a40.2,40.2,0,0,0,3.73,3.52,21.87,21.87,0,0,0,3.37,2.31,13.66,13.66,0,0,0,3.28,1.26,14.93,14.93,0,0,0,3.44.39,16.84,16.84,0,0,0,3.69-.39,29.51,29.51,0,0,0,3.84-1.17l1.35,4a80.71,80.71,0,0,1-10.91,4.2,29.63,29.63,0,0,1-8,1.38,12.7,12.7,0,0,1-3.06-.36,13.33,13.33,0,0,1-2.86-1.09,17,17,0,0,1-2.82-1.87c-.93-.76-1.94-1.66-3-2.69a70.72,70.72,0,0,1-6.07-6.72q-3.45-4.26-7.79-10.63t-9.63-15.12q-5.3-8.73-11.64-20.18l.09-.63a51.29,51.29,0,0,0,14.51-2.38,25.79,25.79,0,0,0,9.58-5.53,20.41,20.41,0,0,0,5.32-8.32,33.27,33.27,0,0,0,1.65-10.8q0-11.44-6-17.13t-17.81-5.68c-1.68,0-3.28.07-4.8.2s-3.2.31-5,.53c-.06,2.49-.15,5.83-.26,10s-.25,9-.39,14.39-.32,11.35-.51,17.8-.39,13.2-.58,20.24-.41,14.26-.64,21.69-.45,14.82-.67,22.2l-11.5,1.45-.88-.1q.58-13.92,1.07-26.39t.8-24.29q.32-11.81.51-23.39T1193.55,489.35Z" transform="translate(-898.13 -312.64)"/><path class="cls-1" d="M1297.78,487.22c0,1.36,0,3.09-.1,5.21s-.14,4.72-.24,7.79-.21,6.66-.34,10.75-.26,8.77-.39,14c4.66-.17,9.14-.3,13.44-.42s8.55-.21,12.74-.29,8.39-.14,12.59-.19,8.54-.09,13-.12c.09-3.3.2-6.6.31-9.9s.25-6.78.42-10.43.36-7.59.6-11.8.54-8.86.9-14a3,3,0,0,1,.65-1.82,5.15,5.15,0,0,1,1.56-1.26,7.64,7.64,0,0,1,2.11-.75,11.46,11.46,0,0,1,2.33-.25,14.13,14.13,0,0,1,3,.37,17.64,17.64,0,0,1,3.18,1q-.74,8-1.29,15.24t-.94,14.17q-.39,6.89-.68,13.61t-.44,13.56q-.15,6.84-.22,14t-.07,14.9a73.1,73.1,0,0,0,.44,8.78,19.69,19.69,0,0,0,1.52,5.95,7.43,7.43,0,0,0,2.94,3.37,9.11,9.11,0,0,0,4.61,1.07,28.15,28.15,0,0,0,4.12-.32,27,27,0,0,0,5.29-1.48l1.36,4c-2.33,1-4.5,1.88-6.5,2.62s-3.87,1.36-5.61,1.84a45.62,45.62,0,0,1-4.82,1.1,26.84,26.84,0,0,1-4.27.36,10.8,10.8,0,0,1-4.86-1,8.49,8.49,0,0,1-3.47-3.42,19.38,19.38,0,0,1-2.06-6.26,57.36,57.36,0,0,1-.68-9.61v-11c0-2.55,0-5,0-7.3s0-4.55.07-6.72.06-4.27.1-6.31.08-4.06.14-6.06q-6.69,0-13,0t-12.56.19q-6.29.15-12.77.39t-13.46.58l-1.65,54.35-11.5,1.45-.87-.1q.57-13.92,1-26.46t.8-24.39q.35-11.84.51-23.34t.17-23.34a20.72,20.72,0,0,0-.32-3.9,5.63,5.63,0,0,0-1.18-2.65,5,5,0,0,0-2.41-1.48,14.07,14.07,0,0,0-3.9-.46,60,60,0,0,0-8.2.73l-.49-4q7-1.79,11.94-2.69a46.88,46.88,0,0,1,8.2-.9,12.5,12.5,0,0,1,5.09.85,5.78,5.78,0,0,1,2.75,2.52,10.58,10.58,0,0,1,1.09,4.1C1297.72,483.3,1297.78,485.15,1297.78,487.22Z" transform="translate(-898.13 -312.64)"/><path class="cls-1" d="M1427.63,588.43a46.23,46.23,0,0,1-17.91-3.39,38,38,0,0,1-14-10.09,47.1,47.1,0,0,1-9.17-16.67,74.12,74.12,0,0,1-3.28-23.17,96.34,96.34,0,0,1,1.36-16.31,78,78,0,0,1,4.07-15,63.08,63.08,0,0,1,6.75-13,45.65,45.65,0,0,1,9.41-10.16A41.65,41.65,0,0,1,1416.9,474a43.6,43.6,0,0,1,14.71-2.38,46,46,0,0,1,17.9,3.4,37.89,37.89,0,0,1,14,10.09,47,47,0,0,1,9.17,16.69A74.51,74.51,0,0,1,1476,525a97.26,97.26,0,0,1-1.36,16.3,78.89,78.89,0,0,1-4.08,15,63,63,0,0,1-6.74,13,46.2,46.2,0,0,1-9.42,10.17,41.89,41.89,0,0,1-12.08,6.65A43.75,43.75,0,0,1,1427.63,588.43Zm2.18-6.3a27.33,27.33,0,0,0,10.24-1.85,26.52,26.52,0,0,0,8.22-5.19,32.82,32.82,0,0,0,6.29-8.1,51.29,51.29,0,0,0,4.39-10.6,79,79,0,0,0,2.57-12.6,112.61,112.61,0,0,0,.85-14.16,89.59,89.59,0,0,0-2.6-22.93,50.62,50.62,0,0,0-7.06-16.11,29.55,29.55,0,0,0-10.4-9.51,26.73,26.73,0,0,0-12.64-3.13,27.3,27.3,0,0,0-10.24,1.84,26.45,26.45,0,0,0-8.23,5.19,33,33,0,0,0-6.28,8.11,51.06,51.06,0,0,0-4.39,10.6,78.84,78.84,0,0,0-2.57,12.62,112.75,112.75,0,0,0-.85,14.14,89.68,89.68,0,0,0,2.59,22.93,51,51,0,0,0,7.06,16.11,29.76,29.76,0,0,0,10.41,9.51A26.82,26.82,0,0,0,1429.81,582.13Zm-19.6-116.55q5.24-4.12,10.14-8.69t9.12-8.93a5.79,5.79,0,0,1,4.27-1.65,12.58,12.58,0,0,1,1.87.15,14.65,14.65,0,0,1,2.26.53,42.25,42.25,0,0,0,3.42,4.51q2,2.28,4.29,4.59c1.55,1.54,3.2,3.06,5,4.58s3.54,3.05,5.39,4.57l-2.14,2.66a57,57,0,0,1-6.16-2.74c-2-1-3.83-2.06-5.56-3.13s-3.32-2.12-4.78-3.15-2.75-2-3.88-2.82h-.48q-1.71,1.28-4.15,2.92c-1.64,1.1-3.39,2.21-5.27,3.34s-3.79,2.22-5.75,3.26-3.81,1.9-5.55,2.62Z" transform="translate(-898.13 -312.64)"/><path class="cls-1" d="M1516,482.51q2.22,4,5.07,8.85t6,10.29q3.19,5.42,6.67,11.19t7,11.59q3.56,5.84,7.06,11.5t6.77,10.9q3.27,5.2,6.21,9.77t5.31,8.16q0-13,0-23.68t.19-19.27q.15-8.58.34-15.26t.51-11.69q.32-5,.73-8.54a53.81,53.81,0,0,1,.94-5.8,10.84,10.84,0,0,1,1.24-3.23,7.58,7.58,0,0,1,1.85-2.06,6.32,6.32,0,0,1,2.28-1.09,10.44,10.44,0,0,1,2.59-.32,22.07,22.07,0,0,1,6.89,1.29l-.14.61a31.73,31.73,0,0,0-4.1,8.73,97.4,97.4,0,0,0-2.94,12q-1.22,6.58-2,13.85t-1.19,14.44q-.43,7.15-.66,13.76t-.36,11.79c-.07,3-.13,6-.2,8.9s-.12,5.79-.17,8.69-.08,5.82-.12,8.78,0,6,0,9.15l-5.91.77-.88-.09q-1.46-2-3.71-5.46c-1.5-2.28-3.2-4.9-5.07-7.84s-3.91-6.16-6.09-9.66-4.45-7.13-6.79-10.91-4.73-7.65-7.16-11.6l-7.21-11.74-6.94-11.36-6.33-10.41q-3-4.87-5.38-8.9l-4.13-6.84q-.09,10.72-.31,20.89t-.56,19.53q-.35,9.36-.75,17.78t-.9,15.65c-.23,3.4-.46,6.29-.7,8.69a59.43,59.43,0,0,1-.88,6,14.84,14.84,0,0,1-1.26,3.81,5.39,5.39,0,0,1-1.87,2.11,6.4,6.4,0,0,1-2.67.9,30,30,0,0,1-3.68.19h-1.31l-1,0-1.51-.08-.68-.48a77.16,77.16,0,0,0,3.71-10.53q1.63-5.82,2.84-12.35t2.11-13.49q.9-7,1.48-14t.95-13.76q.36-6.76.56-12.88c.13-4.07.21-7.86.24-11.35s0-6.54,0-9.13a17.25,17.25,0,0,0-.32-3.56,5.21,5.21,0,0,0-1.16-2.43,4.94,4.94,0,0,0-2.31-1.38,13.51,13.51,0,0,0-3.78-.44c-1.1,0-2.34.07-3.71.2s-2.94.32-4.69.58l-.53-4.27q4.08-.93,7.38-1.65c2.2-.49,4.18-.89,6-1.21s3.39-.58,4.83-.76a33.67,33.67,0,0,1,3.91-.26,10.16,10.16,0,0,1,3.13.43,7.22,7.22,0,0,1,2.47,1.41,12.35,12.35,0,0,1,2.23,2.6C1514.36,479.59,1515.16,480.93,1516,482.51Z" transform="translate(-898.13 -312.64)"/><path class="cls-1" d="M1663.11,560.54a50.35,50.35,0,0,1-1.72,8.87,17.06,17.06,0,0,1-2.75,5.56,8.67,8.67,0,0,1-3.85,2.86,14.84,14.84,0,0,1-5.12.8q-4.37,0-8.81-.26t-9.53-.27c-2.43,0-5.13.1-8.11.32s-6,.54-9.17,1q.35-2.28.66-5.85c.21-2.38.4-5,.58-7.86s.36-5.85.53-9,.33-6.17.47-9.14.24-5.78.33-8.42.18-4.89.25-6.77q7.23.83,13.56,1.38c4.22.38,8,.56,11.33.56a46.07,46.07,0,0,0,5.09-.26,16.24,16.24,0,0,0,3.89-.88,6.17,6.17,0,0,0,2.47-1.58,3.42,3.42,0,0,0,.87-2.37,11.31,11.31,0,0,0-.77-3.84,64,64,0,0,1-7.3,1q-3.87.32-8.86.31-4.12,0-9-.12c-3.23-.08-6.94-.22-11.11-.41q.2-6.69.36-13t.32-12q.15-5.67.27-10.65c.08-3.31.15-6.32.22-9,1.81-.07,3.35-.11,4.63-.12l3.76,0h2.57l7,0,6.25,0,2.19,0c.82,0,1.58-.06,2.29,0s1.54,0,3.29,0c2.27,0,7.51.14,12.12.15.11-1.59.16-2.67.16-3.24a4.07,4.07,0,0,0-1.19-3.22,5,5,0,0,0-3.42-1q-.78,0-4.2.12t-8.73.24l-4.07.08c-2.5.06-5.2.1-8.11.15-4.58.08-9.42,0-14.53,0h-21.69c-2.74,0-15.5-.8-19.61-.88l2.65,10.62c1.46-3.78,10.9-3.35,12.19-3.38s2.31,0,3.18,0q.93,0,1.62.06l.5,0h.14l.27,0a28.69,28.69,0,0,1,3.83.69,4.27,4.27,0,0,1,2.29,1.37l.29.27a4.91,4.91,0,0,1,1.16,2.36,16.67,16.67,0,0,1,.32,3.49q0,8.1-.07,17.15t-.27,18.3q-.19,9.24-.49,18.31c-.19,6-.43,11.81-.73,17.25s-.62,10.48-1,15.07-.8,8.51-1.29,11.74l.88.1a88.08,88.08,0,0,1,10.89-1.87,94.39,94.39,0,0,1,9.73-.56,85.21,85.21,0,0,1,9.34.49c2.9.32,5.59.69,8.08,1.09s4.79.77,6.89,1.09a37.43,37.43,0,0,0,5.77.49,14.19,14.19,0,0,0,5.92-1.19,10.1,10.1,0,0,0,4.44-4.24,26.15,26.15,0,0,0,2.84-8.35,81,81,0,0,0,1.17-13.44Z" transform="translate(-898.13 -312.64)"/><path class="cls-1" d="M1595,481c.52,0,1.07,0,1.62.06Q1595.88,481.05,1595,481Z" transform="translate(-898.13 -312.64)"/><path class="cls-1" d="M1597.07,481.13l-.5,0Z" transform="translate(-898.13 -312.64)"/><path class="cls-1" d="M1470.13,612.64h-572L903.3,592c0,7.55,2.39,9.14,14.71,9.14,344.09,0,521-1.08,537,0,3.51.24,15.71,1.1,25.77-6.16a28.07,28.07,0,0,0,7.48-8.26C1486.08,595.34,1479.67,603.9,1470.13,612.64Z" transform="translate(-898.13 -312.64)"/><path class="cls-1" d="M1470.13,612.64h0l18.15-25.95,14-6.43c-1.28,6.56-3.67,13.09-11.07,22.84C1486,609.86,1476.89,612.24,1470.13,612.64Z" transform="translate(-898.13 -312.64)"/><rect class="cls-1" y="279.33" width="5.17" height="20.67"/></svg>